<?xml version="1.0" encoding="UTF-8" standalone="no"?>
<!DOCTYPE svg PUBLIC "-//W3C//DTD SVG 1.1//EN" "http://www.w3.org/Graphics/SVG/1.1/DTD/svg11.dtd">
<svg width="100%" height="100%" viewBox="0 0 540 960" version="1.1" xmlns="http://www.w3.org/2000/svg" xmlns:xlink="http://www.w3.org/1999/xlink" xml:space="preserve" xmlns:serif="http://www.serif.com/" style="fill-rule:evenodd;clip-rule:evenodd;stroke-linejoin:round;stroke-miterlimit:2;">
    <g transform="matrix(1,0,0,1,-2683.56,0)">
        <g id="Artboard4" transform="matrix(0.5,0,0,0.5,2683.56,0)">
            <rect x="0" y="0" width="1080" height="1920" style="fill:none;"/>
            <g transform="matrix(2.24294,0,0,2.24294,-645.749,221.594)">
                <g transform="matrix(3.24,0,0,3.24,617.032,159.832)">
                    <path d="M0,-0.651C0.491,-0.708 0.993,-0.765 1.506,-0.822C0.947,-1.586 1.529,-2.396 2.704,-2.454C6.389,-2.636 10.074,-2.83 13.758,-2.898C17.615,-2.967 21.471,-2.773 25.315,-2.921C26.832,-2.978 27.859,-2.339 29.057,-1.838C29.844,-1.507 30.654,-1.244 31.464,-0.97C31.807,-0.856 32.16,-0.777 32.537,-0.674C32.4,0.205 31.955,0.729 31.099,1.083C30.689,1.254 30.415,1.676 30.198,1.87C29.696,1.825 29.205,1.745 28.726,1.745C25.167,1.756 21.607,1.768 18.059,1.825C14.934,1.87 11.785,1.813 8.682,2.11C6.377,2.327 4.426,1.676 2.453,0.912C1.574,0.57 0.753,0.113 -0.103,-0.297C-0.068,-0.411 -0.034,-0.525 0,-0.651" style="fill-rule:nonzero;"/>
                </g>
                <g transform="matrix(3.24,0,0,3.24,412.996,137.026)">
                    <path d="M0,-21.996C-0.034,-22.064 -5.453,-20.695 -6.035,-20.559C-11.671,-19.155 -13.291,-18.802 -18.926,-17.421C-19.851,-17.193 -20.832,-16.953 -21.733,-17.581C-21.813,-17.638 -21.961,-17.638 -22.064,-17.638C-23.558,-17.627 -25.053,-17.547 -26.536,-17.615C-27.323,-17.649 -28.11,-17.923 -28.897,-18.083C-28.92,-18.22 -28.932,-18.357 -28.954,-18.482C-28.293,-18.87 -27.62,-19.258 -27.049,-19.589C-27.414,-19.851 -27.893,-20.011 -28.03,-20.33C-28.236,-20.798 -27.426,-22.087 -26.878,-22.281C-24.813,-22.988 -22.76,-23.798 -20.649,-24.335C-13.701,-26.103 -12.321,-26.445 -5.362,-28.168C-3.434,-28.647 -0.742,-29.206 1.152,-29.799C2.43,-30.199 4.175,-30.301 5.43,-30.735C6.229,-31.009 7.028,-31.043 7.883,-30.621C8.488,-30.324 9.286,-30.427 9.994,-30.37C11.283,-30.279 12.549,-30.29 13.827,-30.621C14.728,-30.849 14.785,-30.666 14.979,-29.708C15.219,-28.579 14.785,-27.814 14.021,-27.084C13.633,-26.719 13.382,-26.217 13.04,-25.795C9.937,-22.03 6.834,-18.265 3.696,-14.524C0.924,-11.215 -1.905,-7.952 -4.7,-4.667C-4.814,-4.53 -4.871,-4.336 -4.837,-3.971C-4.175,-4.21 -3.514,-4.427 -2.863,-4.678C1.449,-6.309 5.784,-7.872 10.313,-8.797C10.929,-8.922 10.313,-9.036 10.941,-9.047C11.648,-9.059 11.842,-9.378 11.888,-10.051C12.081,-12.778 12.264,-15.505 12.583,-18.22C12.766,-19.783 13.245,-21.312 13.565,-22.863C13.747,-23.73 14.238,-23.548 14.842,-23.16C15.139,-24.323 15.367,-25.419 15.709,-26.468C16.052,-27.506 16.417,-28.499 16.839,-29.514C16.976,-29.503 17.124,-29.503 17.261,-29.491C17.398,-28.852 17.523,-28.214 17.66,-27.563C17.786,-27.586 17.888,-27.563 17.945,-27.609C18.242,-27.849 18.744,-28.362 18.79,-28.328C19.269,-27.94 19.896,-27.734 19.942,-26.879C20.193,-22.281 20.535,-17.695 20.82,-13.109C20.866,-12.447 20.843,-11.786 20.74,-11.135C20.284,-8.158 20.752,-5.226 21.14,-2.294C21.265,-1.313 21.573,-0.309 20.752,0.558C20.604,0.718 20.626,1.037 20.547,1.38C22.954,0.478 25.27,-0.377 27.449,-1.187C27.38,-4.769 27.346,-8.397 27.243,-12.037C27.175,-14.387 27.026,-16.748 26.901,-19.098C26.832,-20.479 26.433,-21.928 26.741,-23.205C27.198,-25.019 26.832,-26.822 27.175,-28.601C27.369,-29.605 27.483,-30.621 27.654,-31.625C27.688,-31.83 27.825,-32.013 28.03,-32.48C28.418,-31.716 28.681,-31.191 28.966,-30.621C29.08,-30.701 29.194,-30.781 29.319,-30.838C29.673,-31.009 30.129,-31.385 30.38,-31.271C30.894,-31.054 31.658,-30.997 31.715,-30.13C31.749,-29.537 31.932,-28.944 32.069,-28.362C32.115,-28.179 32.183,-27.951 32.331,-27.849C33.221,-27.221 33.312,-26.297 33.381,-25.327C33.78,-19.794 34.157,-14.25 34.613,-8.717C34.796,-6.538 35.206,-4.382 35.457,-2.214C35.526,-1.666 35.343,-1.096 35.389,-0.537C35.434,0.045 35.628,0.627 35.697,1.209C35.788,1.95 36.005,2.749 35.834,3.433C35.697,3.958 35.126,4.597 34.602,4.757C31.316,5.806 27.996,6.764 24.676,7.7C21.767,8.521 18.87,9.354 15.926,10.039C14.032,10.484 13.473,10.438 11.386,9.833C11.888,9.445 10.964,9.195 11.283,8.944C10.701,8.145 10.724,7.905 11.602,7.46C12.196,7.164 12.298,6.799 12.264,6.16C12.082,3.661 11.979,1.163 11.842,-1.335C11.819,-1.758 11.853,-2.168 11.351,-1.929C6.218,0.57 0.867,2.498 -4.461,4.517C-9.081,6.263 -13.633,8.213 -18.196,10.107C-18.721,10.324 -14.899,8.008 -15.367,8.339C-16.097,8.841 -16.131,8.442 -16.599,8.464C-17.751,8.841 -17.341,9.24 -18.584,9.172C-20.079,9.092 -19.291,9.16 -20.775,8.921C-21.664,8.772 -23.284,8.122 -22.748,7.438C-22.303,6.879 -22.144,6.342 -22.132,5.59C-22.132,4.894 -21.721,4.049 -21.22,3.525C-19.029,1.277 -17.672,-1.609 -15.367,-3.731C-11.819,-7.621 -5.487,-14.66 -2.019,-19.623L0,-21.996Z" style="fill-rule:nonzero;"/>
                </g>
                <g transform="matrix(3.24,0,0,3.24,557.522,38.7401)">
                    <path d="M0,38.195C-0.833,37.625 -1.164,38.195 -1.335,38.583C-1.894,39.838 -1.848,39.861 -2.863,38.868L-2.978,38.845C-3.936,39.267 -5.157,38.64 -5.419,37.465C-6.092,34.442 -6.674,31.407 -6.708,28.27C-6.731,26.422 -7.324,24.585 -7.461,22.725C-7.723,19.154 -7.906,15.572 -8.02,11.99C-8.077,10.165 -8.02,8.305 -7.769,6.503C-7.541,4.814 -7.028,3.16 -6.56,1.517C-6.355,0.798 -5.967,0.125 -5.67,-0.571C-5.567,-0.571 -5.476,-0.559 -5.373,-0.559C-5.259,-0.217 -5.145,0.125 -4.997,0.536C-4.415,0.456 -4.506,0.467 -3.788,0.376C-3.788,0.593 -3.069,0.81 -3.069,1.084C-2.419,1.528 -1.791,1.859 -1.301,2.338C-0.981,2.646 -0.799,3.148 -0.685,3.593C-0.536,4.141 0.616,4.78 0.833,5.282C3.023,10.347 4.004,15.39 6.24,20.432C6.423,20.843 6.674,21.219 7.028,21.562C6.936,20.409 6.811,19.257 6.765,18.093C6.594,13.519 6.434,8.932 6.138,4.369C5.967,1.768 6.799,1.551 7.644,-0.845C7.735,-1.118 7.883,-1.381 8.054,-1.609C8.18,-1.769 8.328,-1.951 8.522,-2.202C8.67,-1.7 8.773,-1.335 8.887,-0.981C9.594,-1.335 10.005,-1.198 10.21,-0.251C10.633,1.677 10.884,1.414 11.089,3.377C11.682,9.183 13.952,29.593 14.477,33.985C14.534,34.487 14.215,35.035 14.078,35.548C13.827,36.507 13.085,37.225 13.074,38.343C13.074,39.632 12.024,40.397 10.906,40.214C10.701,40.18 10.507,40.077 10.359,39.952C9.845,39.53 9.412,39.005 8.876,38.64C6.332,36.94 5.784,33.769 3.97,31.624C2.304,29.662 1.129,27.334 0.73,24.79C0.639,24.185 0.616,24.277 0.262,23.763C-0.365,28.612 0.65,33.335 0,38.195" style="fill-rule:nonzero;"/>
                </g>
                <g transform="matrix(3.24,0,0,3.24,416.438,214.149)">
                    <path d="M0,5.544L3.084,5.544L3.084,7.727L-2.576,7.727L-2.576,-2.183L0,-2.183L0,5.544Z" style="fill-rule:nonzero;"/>
                </g>
                <g transform="matrix(3.24,0,0,3.24,488.85,229.232)">
                    <path d="M0,-3.766L-0.023,-3.766L-1.086,-0.613L1.051,-0.613L0,-3.766ZM-1.802,1.351L-2.483,3.072L-5.221,3.072L-1.409,-6.838L1.398,-6.838L5.128,3.072L2.379,3.072L1.733,1.351L-1.802,1.351Z" style="fill-rule:nonzero;"/>
                </g>
                <g transform="matrix(3.24,0,0,3.24,562.086,213.475)">
                    <path d="M0,5.96L0.323,5.96C1.086,5.96 2.379,5.995 2.379,4.909C2.379,3.708 1.109,3.835 0.266,3.835L0,3.835L0,5.96ZM0,1.917L0.289,1.917C0.97,1.917 1.686,1.802 1.686,0.959C1.686,0.046 0.889,0 0.185,0L0,0L0,1.917ZM-2.564,7.935L-2.564,-1.975L1.109,-1.975C2.864,-1.975 4.054,-1.294 4.054,0.601C4.054,1.49 3.765,2.218 2.968,2.622L2.968,2.645C4.389,2.83 4.99,3.789 4.99,5.163C4.99,7.242 3.211,7.924 1.398,7.924L-2.564,7.935Z" style="fill-rule:nonzero;"/>
                </g>
                <g transform="matrix(3.24,0,0,3.24,645.875,230.914)">
                    <path d="M0,-4.805C-0.474,-5.198 -1.074,-5.463 -1.709,-5.463C-2.183,-5.463 -2.818,-5.186 -2.818,-4.632C-2.818,-4.077 -2.125,-3.835 -1.675,-3.685L-1.016,-3.488C0.358,-3.084 1.432,-2.379 1.432,-0.786C1.432,0.196 1.201,1.213 0.404,1.883C-0.37,2.541 -1.409,2.818 -2.402,2.818C-3.65,2.818 -4.874,2.402 -5.879,1.686L-4.782,-0.393C-4.135,0.173 -3.373,0.635 -2.495,0.635C-1.894,0.635 -1.247,0.335 -1.247,-0.37C-1.247,-1.074 -2.264,-1.34 -2.807,-1.502C-4.424,-1.964 -5.486,-2.379 -5.486,-4.297C-5.486,-6.214 -4.054,-7.623 -2.067,-7.623C-1.063,-7.623 0.15,-7.311 1.028,-6.815L0,-4.805Z" style="fill-rule:nonzero;"/>
                </g>
                <g transform="matrix(3.24,0,0,3.24,753.46,48.6451)">
                    <path d="M0,-0.445C0.297,-0.445 0.468,-0.513 0.468,-0.844C0.468,-1.118 0.125,-1.118 -0.137,-1.118L-0.719,-1.118L-0.719,-0.445L0,-0.445ZM0.947,1.084L0.297,1.084L-0.297,-0.046L-0.707,-0.046L-0.707,1.084L-1.312,1.084L-1.312,-1.586L-0.011,-1.586C0.605,-1.586 1.027,-1.472 1.027,-0.764C1.027,-0.274 0.776,-0.069 0.297,-0.034L0.947,1.084ZM1.666,-0.217C1.666,-1.369 0.81,-2.19 -0.297,-2.19C-1.403,-2.19 -2.259,-1.369 -2.259,-0.217C-2.259,0.935 -1.426,1.745 -0.297,1.745C0.833,1.745 1.666,0.924 1.666,-0.217M-2.863,-0.217C-2.864,-1.654 -1.723,-2.795 -0.297,-2.795C1.129,-2.795 2.27,-1.643 2.27,-0.217C2.27,1.209 1.129,2.35 -0.297,2.35C-1.723,2.35 -2.863,1.198 -2.863,-0.217" style="fill-rule:nonzero;"/>
                </g>
                <g transform="matrix(3.24,0,0,3.24,672.701,120.707)">
                    <path d="M0,-20.391C0,-20.391 -0.042,-21.987 0.014,-24.236C0.028,-24.861 0.75,-25.458 1.346,-25.61C2.804,-26.013 4.275,-25.36 4.969,-24.999C5.899,-24.514 5.691,-23.875 4.775,-23.209C3.484,-22.168 3.387,-21.168 3.553,-21.03C3.762,-21.154 3.97,-21.293 4.192,-21.404C7.357,-23.139 11.577,-21.64 12.743,-18.364C13.131,-17.254 12.659,-16.949 11.48,-16.935C9.55,-16.921 7.093,-16.019 7.135,-14.45C7.287,-14.505 7.454,-14.547 7.593,-14.63C9.356,-15.699 11.216,-15.56 13.048,-14.991C14.228,-14.617 15.089,-13.784 15.449,-12.562C15.991,-10.73 15.949,-8.911 15.2,-7.135C14.742,-6.024 13.95,-5.4 12.729,-5.386C12.201,-5.386 10.799,-5.525 10.286,-5.441C9.134,-5.302 8.62,-4.581 8.634,-4.483C10.175,-4.997 11.452,-4.553 12.576,-3.484C13.284,-2.804 13.409,-1.749 13.159,-0.805C12.632,1.18 11.549,2.166 10.341,2.985C9.3,3.692 7.704,3.915 6.843,3.54C5.025,2.582 6.455,-1.152 6.524,-1.194C6.441,-1.235 5.608,-0.555 5.219,0.292C4.831,1.152 4.636,2.374 4.497,3.512C4.386,4.498 4.386,5.233 3.401,5.428C2.374,5.636 1.652,5.164 1.208,4.123C0.194,1.777 0.569,-0.611 1.138,-2.97C1.763,-6.843 6.913,-8.814 8.856,-8.87C6.788,-9.453 5.136,-9.258 2.859,-8.592C1.416,-8.009 1.18,-8.911 1.027,-10.119C0.902,-11.049 0.777,-11.993 0.805,-12.937C0.888,-15.533 2.582,-18.017 5.441,-18.711C6.163,-18.864 6.843,-18.892 7.274,-18.92C7.287,-19.003 6.26,-19.308 5.58,-19.392C4.359,-19.489 3.262,-19.225 2.346,-18.864C1.43,-18.517 1.013,-17.934 0.5,-18.406C-0.111,-18.989 0,-20.391 0,-20.391M-2.429,-18.42C-2.943,-17.948 -3.359,-18.531 -4.275,-18.878C-5.191,-19.225 -6.288,-19.489 -7.51,-19.405C-8.204,-19.322 -9.217,-19.017 -9.203,-18.933C-8.773,-18.906 -8.093,-18.864 -7.371,-18.725C-4.511,-18.031 -2.818,-15.547 -2.735,-12.951C-2.707,-12.021 -2.832,-11.063 -2.957,-10.133C-3.109,-8.925 -3.331,-8.023 -4.789,-8.606C-7.065,-9.272 -8.717,-9.467 -10.785,-8.884C-8.842,-8.828 -3.692,-6.843 -3.068,-2.984C-2.499,-0.625 -2.124,1.749 -3.137,4.109C-3.581,5.164 -4.317,5.622 -5.33,5.414C-6.302,5.205 -6.302,4.484 -6.427,3.498C-6.566,2.36 -6.76,1.138 -7.149,0.278C-7.537,-0.583 -8.37,-1.249 -8.453,-1.208C-8.384,-1.166 -6.94,2.568 -8.773,3.526C-9.633,3.915 -11.216,3.679 -12.271,2.971C-13.492,2.152 -14.575,1.166 -15.089,-0.819C-15.338,-1.749 -15.214,-2.818 -14.506,-3.498C-13.381,-4.567 -12.118,-5.011 -10.563,-4.497C-10.549,-4.594 -11.063,-5.316 -12.215,-5.455C-12.729,-5.538 -14.131,-5.4 -14.658,-5.4C-15.88,-5.413 -16.671,-6.038 -17.129,-7.149C-17.879,-8.925 -17.92,-10.744 -17.379,-12.576C-17.018,-13.798 -16.157,-14.63 -14.978,-15.005C-13.131,-15.574 -11.271,-15.713 -9.522,-14.644C-9.384,-14.561 -9.217,-14.519 -9.064,-14.464C-9.009,-16.032 -11.48,-16.935 -13.409,-16.948C-14.589,-16.962 -15.061,-17.268 -14.672,-18.378C-13.506,-21.654 -9.286,-23.153 -6.121,-21.418C-5.899,-21.293 -5.705,-21.168 -5.483,-21.043C-5.316,-21.196 -5.4,-22.182 -6.704,-23.223C-7.621,-23.889 -7.829,-24.528 -6.899,-25.013C-6.205,-25.388 -4.733,-26.027 -3.276,-25.624C-2.679,-25.458 -1.957,-24.861 -1.943,-24.25C-1.874,-22.001 -1.929,-20.405 -1.929,-20.405C-1.929,-20.405 -1.818,-18.989 -2.429,-18.42" style="fill-rule:nonzero;"/>
                </g>
            </g>
            <g transform="matrix(2.37116,0,0,2.37116,626.677,864.9)">
                <path d="M-0.169,104.083L19.402,111.546C25.826,113.994 29.048,121.188 26.598,127.612L13.287,162.522C13.94,163.076 14.547,163.707 15.093,164.411C19.366,169.915 18.369,177.841 12.866,182.114L-19.709,207.408C-22.357,209.464 -25.566,210.3 -28.659,210.001L-46.309,210.432L-46.808,210.447L-35.187,233.287C-34.934,233.783 -34.486,234.151 -33.951,234.304C-33.415,234.456 -32.84,234.378 -32.365,234.088L-10.121,220.553C-8.819,220.546 -7.524,220.74 -6.285,221.125C-2.791,221.603 0.486,223.536 2.568,226.72L18.541,251.139L19.107,250.769C24.938,246.954 32.758,248.59 36.572,254.421C40.386,260.252 38.751,268.072 32.919,271.886L24.313,277.515C23.209,278.238 22.034,278.764 20.828,279.104C15.805,281.971 9.534,281.015 5.582,276.982L-6.958,253.209C-6.975,253.177 -6.994,253.144 -7.013,253.112C-8.749,250.223 -12.505,249.298 -15.386,251.05L-56.416,275.471C-59.349,276.385 -62.341,276.882 -65.318,276.989C-66.812,276.398 -68.149,275.413 -69.292,274.349C-72.234,271.612 -73.993,268.248 -73.993,268.248C-74.504,267.27 -75.713,266.89 -76.692,267.401C-77.67,267.912 -78.05,269.121 -77.539,270.099C-77.539,270.099 -75.814,273.388 -72.882,276.419C-83.024,274.512 -92.193,268.066 -97.192,258.137L-107.529,237.605C-113.798,225.153 -111.761,210.696 -103.501,200.537C-110.865,202.747 -118.671,203.935 -126.755,203.935C-171.359,203.935 -207.517,167.777 -207.517,123.174C-207.517,78.571 -171.359,42.413 -126.755,42.413C-97.569,42.413 -71.999,57.895 -57.809,81.095C-57.636,81.128 -50.597,82.511 -47.471,86.678C-45.344,89.515 -48.232,94.178 -50.354,96.931C-47.528,105.159 -45.994,113.987 -45.994,123.174C-45.994,149.681 -58.764,173.205 -78.488,187.931C-77.683,187.894 -76.879,187.886 -76.078,187.906C-74.146,186.6 -71.831,185.814 -69.327,185.752L-35.273,184.922L-38.948,183.52C-45.372,181.071 -48.594,173.878 -46.144,167.454L-23.647,108.453C-21.198,102.029 -14.004,98.807 -7.581,101.257L-4.219,102.539C-4.785,86.497 -0.095,62.31 30.277,51.564C48.77,45.02 66.916,46.169 82.359,45.498C93.307,45.022 102.849,43.673 109.972,37.383C117.153,31.042 121.322,19.745 123.188,-0.142C124.113,-9.997 124.659,-15.955 124.826,-21.878C124.855,-22.914 124.122,-24.913 119.555,-25.002C118.062,-25.032 124.872,-28.029 124.834,-29.659C124.753,-33.103 128.328,-32.181 128.389,-29.023C128.413,-27.818 135.671,-24.986 134.215,-25.002C130.092,-25.049 128.355,-22.978 128.325,-21.917C128.058,-12.306 127.224,-0.506 127.178,0.142C125.647,21.572 120.343,33.561 112.62,40.381C104.839,47.252 94.491,48.974 82.533,49.494C67.437,50.151 49.689,48.938 31.611,55.334C2.506,65.633 -1.07,89.289 -0.169,104.083ZM9.804,160.428L22.861,126.187C24.523,121.827 22.337,116.945 17.977,115.283L-9.006,104.994C-13.365,103.332 -18.247,105.518 -19.91,109.878L-42.407,168.879C-44.069,173.239 -41.883,178.12 -37.523,179.783L-29.309,182.915L-2.61,162.184C1.052,159.34 5.786,158.83 9.804,160.428ZM-124.611,121.187C-124.611,121.187 -128.955,120.986 -133.103,122.236C-136.188,123.166 -139.103,124.913 -140.492,127.83C-141.912,130.809 -141.859,135.227 -138.023,141.62C-133.036,149.932 -127.884,152.151 -123.695,152.087C-117.228,151.989 -112.581,146.146 -112.581,146.146L-115.73,143.679C-115.73,143.679 -119.057,148.016 -123.756,148.088C-127.011,148.137 -130.718,146.021 -134.593,139.562C-137.405,134.876 -137.922,131.734 -136.881,129.55C-135.976,127.649 -133.958,126.672 -131.948,126.066C-128.455,125.013 -124.797,125.183 -124.797,125.183L-124.611,121.187ZM-64.43,84.979C-65.48,83.147 -66.814,81.821 -67.778,81.325L-68.547,81.033L-69.198,80.95L-69.834,81.022L-70.488,81.283L-71.043,81.716L-71.427,82.227L-71.685,82.832L-71.821,83.642C-71.88,84.725 -71.41,86.546 -70.36,88.379C-69.31,90.211 -67.976,91.537 -67.012,92.033L-66.243,92.325L-65.592,92.408L-64.956,92.336L-64.302,92.075L-63.747,91.642L-63.363,91.131L-63.105,90.526L-62.969,89.716C-62.91,88.633 -63.379,86.812 -64.43,84.979ZM-3.921,267.54C-4.744,270.294 -6.507,272.782 -9.101,274.479C-14.932,278.293 -22.752,276.658 -26.566,270.827L-30.445,264.896L-13.307,254.467C-12.335,253.876 -11.071,254.175 -10.467,255.131L-3.921,267.54ZM-39.191,216.803C-34.873,216.598 -30.563,218.621 -28.025,222.501L-26.029,225.551L-32.6,229.549L-39.191,216.803Z"/>
            </g>
            <g transform="matrix(0,-2.37116,-2.37116,0,674.636,847.478)">
                <path d="M-5.176,-5.176C-8.035,-5.176 -10.352,-2.859 -10.352,-0C-10.352,2.859 -8.035,5.176 -5.176,5.176C-2.317,5.176 -0,2.859 -0,-0C-0,-2.859 -2.317,-5.176 -5.176,-5.176" style="fill-rule:nonzero;"/>
            </g>
            <g transform="matrix(0,-2.37116,-2.37116,0,577.711,944.403)">
                <path d="M-5.176,-5.176C-8.035,-5.176 -10.352,-2.859 -10.352,-0C-10.352,2.859 -8.035,5.176 -5.176,5.176C-2.317,5.176 -0,2.859 -0,-0C-0,-2.859 -2.317,-5.176 -5.176,-5.176" style="fill-rule:nonzero;"/>
            </g>
        </g>
    </g>
</svg>
